# AST/ASF file generated using VICON BodyLanguage
# -----------------------------------------------
:version 1.10
:name VICON
:units
  mass 1.0
  length 0.45
  angle deg
:documentation
   .ast/.asf automatically generated from VICON data using
   VICON BodyBuilder and BodyLanguage model FoxedUp or BRILLIANT.MOD
:root
   order TX TY TZ RX RY RZ
   axis XYZ
   position 0 0 0  
   orientation 0 0 0 
:bonedata
  begin
     id 1 
     name lhipjoint
     direction 0.627457 -0.725269 0.283342 
     length 2.53237 
     axis 0 0 0  XYZ
  end
  begin
     id 2 
     name lfemur
     direction 0.34202 -0.939693 0  
     length 7.32496  
     axis 0 0 20  XYZ
    dof rx ry rz
    limits (-160.0 20.0)
           (-70.0 70.0)
           (-60.0 70.0)
  end
  begin
     id 3 
     name ltibia
     direction 0.34202 -0.939693 0   
     length 7.69674   
     axis 0 0 20   XYZ
    dof rx
    limits (-10.0 170.0)
  end
  begin
     id 4 
     name lfoot
     direction 0.127289 -0.349722 0.928166   
     length 1.8612   
     axis -90 7.62852e-016 20   XYZ
    dof rx rz
    limits (-45.0 90.0)
           (-70.0 20.0)
  end
  begin
     id 5 
     name ltoes
     direction 1.53561e-011 -4.21864e-011 1   
     length 0.925608   
     axis -90 7.62852e-016 20   XYZ
    dof rx
    limits (-90.0 20.0)
  end
  begin
     id 6 
     name rhipjoint
     direction -0.609094 -0.738725 0.288599   
     length 2.48624  
     axis 0 0 0  XYZ 
  end
  begin
     id 7 
     name rfemur
     direction -0.34202 -0.939693 0   
     length 7.44259   
     axis 0 0 -20   XYZ
    dof rx ry rz
    limits (-160.0 20.0)
           (-70.0 70.0)
           (-70.0 60.0)
  end
  begin
     id 8 
     name rtibia
     direction -0.34202 -0.939693 0   
     length 7.7781   
     axis 0 0 -20   XYZ
    dof rx
    limits (-10.0 170.0)
 end
 begin
     id 9 
     name rfoot
     direction -0.107015 -0.294021 0.949789   
     length 2.14741  
     axis -90 -7.62852e-016 -20   XYZ
    dof rx rz
    limits (-45.0 90.0)
           (-20.0 70.0)
  end
  begin
     id 10 
     name rtoes
     direction -1.53497e-011 -4.21924e-011 1   
     length 1.0706   
     axis -90 -7.62852e-016 -20   XYZ
    dof rx
    limits (-90.0 20.0)
  end
  begin
     id 11 
     name lowerback
     direction -0.0142066 0.998112 -0.0597545   
     length 1.86627   
     axis 0 0 0   XYZ
    dof rx ry rz
    limits (-20.0 45.0)
           (-30.0 30.0)
           (-30.0 30.0)
  end
  begin
     id 12 
     name upperback
     direction 0.00547294 0.999744 0.0219437   
     length 1.86272   
     axis 0 0 0   XYZ
    dof rx ry rz
    limits (-20.0 45.0)
           (-30.0 30.0)
           (-30.0 30.0)
  end
  begin
     id 13 
     name thorax
     direction 0.0116162 0.998704 0.0495538   
     length 1.8703   
     axis 0 0 0   XYZ
    dof rx ry rz
    limits (-20.0 45.0)
           (-30.0 30.0)
           (-30.0 30.0)
  end
  begin
     id 14 
     name lowerneck
     direction -0.0106574 0.998739 0.0490586   
     length 1.8074   
     axis 0 0 0   XYZ
    dof rx ry rz
    limits (-20.0 45.0)
           (-30.0 30.0)
           (-30.0 30.0)
  end
  begin
     id 15 
     name upperneck
     direction 0.030527 0.976587 -0.212944   
     length 1.80681   
     axis 0 0 0   XYZ
    dof rx ry rz
    limits (-20.0 45.0)
           (-30.0 30.0)
           (-30.0 30.0)
  end
  begin
     id 16
     name head
     direction 0.00869225 0.997035 -0.0764531  
     length 1.8313  
     axis 0 0 0   XYZ
    dof rx ry rz
    limits (-20.0 45.0)
           (-30.0 30.0)
           (-30.0 30.0)
  end
  begin
     id 17 
     name lclavicle
     direction 0.915958 0.399447 0.0382386  
     length 3.78965  
     axis 0 0 0   XYZ
    dof ry rz
    limits (-20.0 10.0)
           (0.0 20.0)
  end
  begin
     id 18 
     name lhumerus
     direction 1 -4.48967e-011 3.19303e-027   
     length 4.78095   
     axis -180 -30 -90   XYZ
    dof rx ry rz
    limits (-60.0 90.0)
           (-90.0 90.0)
           (-90.0 90.0)
  end
  begin
     id 19
     name lradius
     direction 1 -4.48967e-011 -3.77974e-027   
     length 3.58615   
     axis -180 -30 -90   XYZ
    dof rx
    limits (-10.0 170.0)
  end
  begin
     id 20
     name lwrist
     direction 1 -4.48927e-011 1.2807e-027   
     length 1.79307   
     axis 1.91374e-015 90 90   XYZ
    dof ry
    limits (-180.0 0.0)
 end
  begin
     id 21 
     name lhand
     direction 1 -4.49036e-011 2.5614e-027   
     length 0.659812   
     axis -1.63439e-015 90 90   XYZ
    dof rx rz
    limits (-90.0 90.0)
           (-45.0 45.0)
  end
  begin
     id 22 
     name lfingers
     direction 1 -4.49052e-011 5.1228e-027   
     length 0.531957   
     axis -3.26879e-015 90 90   XYZ
    dof rx
    limits (0.0 90.0)
  end
  begin
     id 23
     name lthumb
     direction 0.707107 -6.35012e-011 0.707107   
     length 0.763787   
     axis -90 45 2.85299e-015   XYZ
    dof rx rz
    limits (-45.0 45.0)
           (-45.0 45.0)
  end
  begin
     id 24 
     name rclavicle
     direction -0.895351 0.435135 0.0948887   
     length 3.70497  
     axis 0 0 0   XYZ 
    dof ry rz
    limits (-10.0 20.0)
           (-20.0 0.0)
  end
  begin
     id 25 
     name rhumerus
     direction -1 -4.48971e-011 2.38946e-027  
     length 4.48913   
     axis -180 30 90   XYZ
    dof rx ry rz
    limits (-90.0 60.0)
           (-90.0 90.0)
           (-90.0 90.0)
  end
  begin
     id 26 
     name rradius
     direction -1 -4.4895e-011 4.38668e-027   
     length 3.7051   
     axis -180 30 90   XYZ
    dof rx
    limits (-10.0 170.0)
  end
  begin
     id 27 
     name rwrist
     direction -1 -4.49007e-011 1.2807e-027   
     length 1.85255   
     axis 1.91374e-015 -90 -90   XYZ
    dof ry
    limits (-180.0 0.0)
  end
  begin
     id 28
     name rhand
     direction -1 -4.48851e-011 2.5614e-027   
     length 0.449136   
     axis -1.63439e-015 -90 -90   XYZ
    dof rx rz
    limits (-90.0 90.0)
           (-45.0 45.0)
  end
  begin
     id 29
     name rfingers
     direction -1 -4.49128e-011 5.1228e-027   
     length 0.362105   
     axis -3.26879e-015 -90 -90   XYZ
    dof rx
    limits (0.0 90.0)
  end
  begin
     id 30
     name rthumb
     direction -0.707107 -6.34851e-011 0.707107   
     length 0.519912   
     axis -90 -45 -2.85299e-015   XYZ
    dof rx rz
    limits (-45.0 45.0)
           (-45.0 45.0)
  end
:hierarchy
  begin
    root lhipjoint rhipjoint lowerback
    lhipjoint lfemur
    lfemur ltibia
    ltibia lfoot
    lfoot ltoes
    rhipjoint rfemur
    rfemur rtibia
    rtibia rfoot
    rfoot rtoes
    lowerback upperback
    upperback thorax
    thorax lowerneck lclavicle rclavicle
    lowerneck upperneck
    upperneck head
    lclavicle lhumerus
    lhumerus lradius
    lradius lwrist
    lwrist lhand lthumb
    lhand lfingers
    rclavicle rhumerus
    rhumerus rradius
    rradius rwrist
    rwrist rhand rthumb
    rhand rfingers
  end

#!OML:ASF I:\Actors\actors\Patient Classification 2\Patient 1\Session 1\actor1.ASF
:FULLY-SPECIFIED
:DEGREES
1
root -0.689522 18.6682 5.56635 -0.385005 -2.6089 -2.26893
lowerback 5.884 0.576035 -0.0612547
upperback -2.35932 0.769551 0.0879692
thorax -5.75654 0.384034 0.0429304
lowerneck -12.0432 -2.53318 -1.08978
upperneck 24.6455 -4.28254 3.59088
head 9.90602 -1.68869 0.922728
rclavicle -2.37299e-015 -3.57812e-015
rhumerus -49.4869 -2.44857 -86.5062
rradius 43.4015
rwrist 20.7984
rhand -0.995071 -35.4878
rfingers 7.12502
rthumb 24.6369 -63.9221
lclavicle -2.37299e-015 -3.57812e-015
lhumerus -43.1606 3.03112 87.9607
lradius 38.4052
lwrist -13.2065
lhand -8.45133 -27.1869
lfingers 7.12502
lthumb 17.4745 2.04768
rfemur 7.90916 -0.192819 15.8684
rtibia 3.18055e-014
rfoot -13.9559 -7.95026
rtoes -2.81753
lfemur -3.72366 -3.5373 -11.9139
ltibia 22.4115
lfoot -21.8998 12.0051
ltoes -53.9609
2
root -0.687633 18.6679 5.5654 -0.420054 -2.56123 -2.28474
lowerback 5.91595 0.579438 -0.00221769
upperback -2.34989 0.778253 0.0749865
thorax -5.76392 0.385864 -0.0049326
lowerneck -12.0136 -2.54528 -1.04893
upperneck 24.6575 -4.29539 3.53765
head 9.90274 -1.69702 0.896049
rclavicle -2.33572e-015 -7.15625e-015
rhumerus -49.5112 -2.48028 -86.4867
rradius 43.406
rwrist 20.7429
rhand -1.15862 -35.3477
rfingers 7.12502
rthumb 24.4802 -63.8032
lclavicle -2.33572e-015 -7.15625e-015
lhumerus -43.1584 3.09342 87.9263
lradius 38.3899
lwrist -13.2496
lhand -8.47391 -27.3679
lfingers 7.12502
lthumb 17.4528 1.86861
rfemur 7.95896 -0.236816 15.8737
rtibia 3.18055e-015
rfoot -13.9735 -7.9235
rtoes -2.74382
lfemur -3.76642 -3.56388 -11.9277
ltibia 22.5026
lfoot -21.8763 12.2042
ltoes -54.2586
3
root -0.685012 18.6668 5.56562 -0.447144 -2.5362 -2.32526
lowerback 5.8992 0.59545 0.0712176
upperback -2.32379 0.806332 0.0876877
thorax -5.72611 0.397328 -0.0356089
lowerneck -12.0119 -2.54271 -1.08757
upperneck 24.6625 -4.28684 3.5537
head 9.90518 -1.69459 0.909305
rclavicle 1.10947e-014 -1.59028e-015
rhumerus -49.4901 -2.49939 -86.4164
rradius 43.3874
rwrist 20.7188
rhand -1.0763 -35.7684
rfingers 7.12502
rthumb 24.5591 -64.2132
lclavicle 1.10947e-014 -1.59028e-015
lhumerus -43.1648 3.08492 87.9792
lradius 38.4593
lwrist -13.1978
lhand -8.37323 -27.337
lfingers 7.12502
lthumb 17.5497 1.89094
rfemur 7.99915 -0.258675 15.9023
rtibia -9.54166e-015
rfoot -13.9805 -7.90396
rtoes -2.78407
lfemur -3.7744 -3.63936 -11.9099
ltibia 22.5618
lfoot -21.9326 12.3731
ltoes -54.3621
4
root -0.683735 18.6652 5.56706 -0.476575 -2.52588 -2.36109
lowerback 5.84652 0.618921 0.11719
upperback -2.28218 0.841895 0.0993991
thorax -5.65184 0.413589 -0.0521298
lowerneck -12.0608 -2.54688 -1.17002
upperneck 24.708 -4.30539 3.66767
head 9.93621 -1.6964 0.960365
rclavicle 1.57661e-014 -1.15295e-014
rhumerus -49.4409 -2.54 -86.3333
rradius 43.3461
rwrist 20.7822
rhand -0.723835 -36.4361
rfingers 7.12502
rthumb 24.8969 -64.8347
lclavicle 1.57661e-014 -1.15295e-014
lhumerus -43.1737 2.95475 88.0736
lradius 38.5584
lwrist -13.0458
lhand -8.23971 -27.232
lfingers 7.12502
lthumb 17.6782 1.98441
rfemur 8.03813 -0.266061 15.9292
rtibia 3.18055e-015
rfoot -13.9489 -7.91305
rtoes -2.94134
lfemur -3.7668 -3.64407 -11.8761
ltibia 22.6135
lfoot -21.9544 12.4171
ltoes -54.3855
5
root -0.682914 18.6643 5.56868 -0.508432 -2.55275 -2.38652
lowerback 5.79285 0.654853 0.14408
upperback -2.24414 0.892132 0.104551
thorax -5.58089 0.4377 -0.0662349
lowerneck -12.1159 -2.54823 -1.26258
upperneck 24.7535 -4.32823 3.82191
head 9.96986 -1.69647 1.02672
rclavicle -6.44808e-015 -3.97569e-015
rhumerus -49.4013 -2.58071 -86.2571
rradius 43.2941
rwrist 20.8722
rhand -0.634329 -36.4581
rfingers 7.12502
rthumb 24.9827 -64.8448
lclavicle -6.44808e-015 -3.97569e-015
lhumerus -43.1443 2.89427 88.1264
lradius 38.555
lwrist -12.9734
lhand -8.17585 -27.2323
lfingers 7.12502
lthumb 17.7396 1.97851
rfemur 8.0744 -0.235818 15.9439
rtibia 9.54166e-015
rfoot -13.9309 -7.91746
rtoes -2.9727
lfemur -3.74489 -3.57987 -11.8457
ltibia 22.6491
lfoot -21.9261 12.4292
ltoes -54.5
6
root -0.681444 18.6623 5.57016 -0.581965 -2.64552 -2.39975
lowerback 5.79664 0.708289 0.16238
upperback -2.20304 0.965381 0.113986
thorax -5.53972 0.473521 -0.0741295
lowerneck -12.1877 -2.55344 -1.3529
upperneck 24.8066 -4.34558 3.93075
head 10.0082 -1.69856 1.07738
rclavicle 5.36719e-015 -3.18055e-015
rhumerus -49.3622 -2.56835 -86.1891
rradius 43.2423
rwrist 20.8682
rhand -0.90619 -36.0922
rfingers 7.12502
rthumb 24.7221 -64.5148
lclavicle 5.36719e-015 -3.18055e-015
lhumerus -43.1173 2.92934 88.163
lradius 38.5287
lwrist -12.9593
lhand -8.13927 -27.1881
lfingers 7.12502
lthumb 17.7748 2.01952
rfemur 8.15034 -0.136354 15.943
rtibia 1.11319e-014
rfoot -13.9566 -7.87891
rtoes -2.69182
lfemur -3.65546 -3.48815 -11.8344
ltibia 22.6795
lfoot -21.9451 12.4375
ltoes -54.6332
